<?xml version="1.0" encoding="utf-8"?>
<!-- Svg Vector Icons : http://www.onlinewebfonts.com/icon -->
<!DOCTYPE svg PUBLIC "-//W3C//DTD SVG 1.1//EN" "http://www.w3.org/Graphics/SVG/1.1/DTD/svg11.dtd">
<svg version="1.1" xmlns="http://www.w3.org/2000/svg" xmlns:xlink="http://www.w3.org/1999/xlink" x="0px" y="0px" viewBox="0 0 1000 1000" enable-background="new 0 0 1000 1000" xml:space="preserve">
<metadata> Svg Vector Icons : http://www.onlinewebfonts.com/icon </metadata>
<g><g transform="translate(0.000000,511.000000) scale(0.100000,-0.100000)"><path d="M6723.9,4772.2c-88.1-61.3-99.6-116.8-99.6-467.4c0-239.5,7.7-344.8,26.8-392.7c28.7-67,113-124.5,183.9-124.5s155.2,57.5,183.9,124.5c19.2,47.9,26.8,151.3,26.8,383.1c0,341-15.3,419.5-97.7,477C6890.6,4810.6,6779.5,4812.5,6723.9,4772.2z"/><path d="M4716.3,3971.5c-80.4-36.4-122.6-99.6-122.6-191.6c0-70.9,13.4-90,258.6-335.2c256.7-258.6,258.6-260.5,346.7-260.5c74.7,0,95.8,9.6,143.7,63.2c42.1,47.9,55.6,80.5,55.6,141.8c0,74.7-11.5,90-233.7,318c-205,206.9-316.1,293.1-373.5,291.2C4783.4,3996.4,4748.9,3984.9,4716.3,3971.5z"/><path d="M8798.5,3971.5c-30.6-15.3-162.8-134.1-291.2-264.4c-224.1-228-235.6-243.3-235.6-318c0-61.3,13.4-93.9,55.6-141.8c47.9-53.6,69-63.2,143.7-63.2c88.1,0,90,1.9,346.7,260.5c245.2,245.2,258.6,264.3,258.6,335.2c0,91.9-42.1,157.1-126.4,191.6C8873.2,4004.1,8871.3,4004.1,8798.5,3971.5z"/><path d="M6522.8,3326c-381.2-93.9-722.2-325.7-963.6-657.1l-40.2-55.6l-122.6,40.2c-337.1,111.1-762.4,139.8-1080.4,72.8c-624.5-134.1-1204.9-509.6-1591.9-1026.8l-124.5-164.7l-134.1,34.5c-703,178.1-1427.1-9.6-1858.1-478.9C243.4,693.9,49.9,98.1,111.2-432.5c51.7-455.9,245.2-837.1,580.4-1155.1c243.3-231.8,490.4-373.5,831.4-480.8l168.6-53.6l1568.9-5.7c1331.3-3.8,1593.8,0,1735.5,23c1021,176.2,1823.7,986.5,2007.6,2022.9l34.5,199.2l132.2,26.8C7762.2,262.9,8279.4,770.5,8425,1377.8c170.5,708.8-208.8,1509.5-867.8,1835.2c-109.2,53.6-254.8,109.2-329.5,124.5C7038.1,3377.7,6706.7,3371.9,6522.8,3326z M7160.7,2931.3c249-63.2,503.8-226,647.5-411.9c295-383.1,333.3-946.3,93.9-1404.1c-86.2-162.8-314.2-387-477-465.5c-118.8-57.5-371.6-134.1-387-116.9c-3.8,3.8-23,90-40.2,189.6c-111.1,649.4-463.6,1220.3-1000,1618.7c-55.6,42.1-101.5,86.2-101.5,101.5c0,13.4,70.9,95.8,159,183.9C6365.7,2940.9,6731.6,3042.5,7160.7,2931.3z M5158.9,2303c318-86.2,766.3-365.9,971.2-607.2c318-371.6,469.3-762.4,488.5-1252.8c15.3-406.1-38.3-693.4-195.4-1034.4c-172.4-375.4-513.4-733.7-871.6-917.6c-155.2-78.6-427.2-164.8-613-193.5c-281.6-42.1-3005.6-40.2-3214.4,3.8c-546,111.1-957.8,471.3-1136,990.4C433-254.3,477.1,186.3,720.4,569.4c383.1,605.3,1036.3,816.1,1771.9,567c80.5-26.8,172.4-49.8,203.1-49.8c80.5,0,153.3,69,296.9,287.3c143.7,216.5,383.1,467.4,568.9,599.6c241.4,170.5,565.1,310.3,829.5,358.2C4540.1,2358.6,5024.8,2341.3,5158.9,2303z"/><path d="M9007.3,2132.5c-78.6-34.5-122.6-99.6-122.6-183.9c0-86.2,44.1-149.4,126.4-183.9c90-38.3,672.4-38.3,764.3,0c67,28.7,124.5,113,124.5,183.9s-57.5,155.2-124.5,183.9C9685.4,2168.9,9093.5,2168.9,9007.3,2132.5z"/><path d="M8394.3,293.5c-80.5-36.4-122.6-99.6-122.6-191.6c0-70.9,13.4-90,258.6-335.2C8787-491.9,8788.9-493.8,8877-493.8c74.7,0,95.8,9.6,143.7,63.2c42.1,47.9,55.6,80.5,55.6,141.8c0,74.7-11.5,90-233.7,318c-205,206.9-316.1,293.1-373.5,291.2C8461.4,318.4,8426.9,307,8394.3,293.5z"/><path d="M1038.4-2771.4c-120.7-53.6-162.8-205-82.4-306.5c101.5-130.3,632.2-429.1,841-473.1c214.6-46,442.5,24.9,660.9,205c289.3,239.5,283.5,239.5,584.3,0c180.1-141.7,306.5-201.1,465.5-216.5c178.2-15.3,346.7,40.2,519.1,170.5c250.9,193.5,302.7,226,356.3,226s103.4-32.6,356.3-226c222.2-168.6,452.1-214.6,674.3-137.9c111.1,40.2,205,99.6,421.4,270.1c174.3,136,218.4,128.3,469.3-82.4c224.1-185.8,454-256.7,666.6-206.9c220.3,49.8,737.5,341,839.1,471.2c84.3,107.3,32.5,270.1-101.5,314.2c-80.4,26.8-126.4,9.6-295-113c-160.9-116.8-388.9-241.4-496.2-268.2c-105.4-28.7-162.8-3.8-350.5,147.5c-254.8,206.9-440.6,272-659,231.8c-151.3-26.8-256.7-82.4-452.1-237.5c-90-70.9-183.9-136-208.8-147.5c-65.1-24.9-134.1,7.7-296.9,141.8c-74.7,61.3-197.3,143.7-273.9,182c-124.5,61.3-153.2,69-293.1,69c-139.8,0-168.6-7.7-293.1-69c-76.6-38.3-199.2-120.7-273.9-182c-162.8-134.1-231.8-166.7-296.9-141.8c-24.9,11.5-118.8,76.6-208.8,147.5c-195.4,155.2-300.8,210.7-452.1,237.5c-220.3,40.2-411.9-26.8-659-229.9c-185.8-153.3-245.2-178.2-350.6-149.4c-107.3,26.8-335.2,151.3-496.1,268.2c-118.8,86.2-205,134.1-241.4,132.2C1103.5-2746.5,1070.9-2758,1038.4-2771.4z"/><path d="M1000.1-3813.5c-82.4-65.1-105.4-166.7-61.3-262.4c28.7-63.2,390.8-306.5,591.9-400.4c191.6-88.1,296.9-113,452.1-103.4c170.5,9.6,295,69,513.4,243.3c95.8,74.7,193.5,141.7,218.4,149.4c59.4,15.3,139.8-26.8,296.9-157.1c72.8-59.4,185.8-136,249-168.6c107.3-55.6,132.2-61.3,298.8-61.3c166.7,0,193.5,5.7,306.5,61.3c69,34.5,193.5,118.8,275.8,185.8c226,185.8,258.6,185.8,490.4-5.8c78.5-65.1,199.2-145.6,268.2-180.1c113-55.6,139.8-61.3,306.5-61.3c166.7,0,191.6,5.7,298.8,61.3c63.2,32.6,176.2,109.2,249,168.6c157.1,130.3,237.5,172.4,296.9,157.1c24.9-7.7,124.5-74.7,218.4-149.4c218.4-174.3,342.9-233.7,513.4-243.3c155.2-9.6,260.5,15.3,452.1,103.4c201.1,93.9,563.2,337.2,591.9,400.4c65.1,141.8-23,295-170.5,296.9c-49.8,0-97.7-19.2-162.8-67c-296.9-210.7-536.4-333.3-651.3-335.2c-44.1,0-95.8,26.8-180.1,91.9c-365.9,279.7-463.6,321.8-697.3,306.5c-166.7-11.5-310.3-78.5-501.9-235.6c-159-132.2-235.6-172.4-300.7-155.2c-26.8,5.8-124.5,70.9-216.5,145.6c-256.7,203-341,239.5-563.2,239.5s-306.5-36.4-563.2-239.5c-92-74.7-189.6-139.8-216.5-145.6c-63.2-17.2-139.8,23-302.7,155.2c-197.3,159-335.2,224.1-500,235.6c-231.8,15.3-362.1-42.1-693.4-302.7c-88.1-70.9-137.9-95.8-182-95.8c-116.9,1.9-354.4,122.6-653.2,335.2C1166.7-3769.5,1067.1-3758,1000.1-3813.5z"/></g></g>
</svg>